<svg xmlns="http://www.w3.org/2000/svg" width="1200" height="250" viewBox="0 0 1200 250" font-family="Poppins, 'Helvetica Neue', Arial, sans-serif">
<defs><marker id="aInk" viewBox="0 0 10 10" refX="8.5" refY="5" markerWidth="6.5" markerHeight="6.5" orient="auto-start-reverse"><path d="M0,1 L9,5 L0,9 z" fill="#0a2540"/></marker><marker id="aAcc" viewBox="0 0 10 10" refX="8.5" refY="5" markerWidth="6.5" markerHeight="6.5" orient="auto-start-reverse"><path d="M0,1 L9,5 L0,9 z" fill="#2248e5"/></marker><marker id="aNavy" viewBox="0 0 10 10" refX="8.5" refY="5" markerWidth="6.5" markerHeight="6.5" orient="auto-start-reverse"><path d="M0,1 L9,5 L0,9 z" fill="#0a4a8f"/></marker><marker id="aMut" viewBox="0 0 10 10" refX="8.5" refY="5" markerWidth="6.5" markerHeight="6.5" orient="auto-start-reverse"><path d="M0,1 L9,5 L0,9 z" fill="#aeb7c4"/></marker><marker id="aGood" viewBox="0 0 10 10" refX="8.5" refY="5" markerWidth="6.5" markerHeight="6.5" orient="auto-start-reverse"><path d="M0,1 L9,5 L0,9 z" fill="#15803d"/></marker><marker id="aRed" viewBox="0 0 10 10" refX="8.5" refY="5" markerWidth="6.5" markerHeight="6.5" orient="auto-start-reverse"><path d="M0,1 L9,5 L0,9 z" fill="#b3261e"/></marker></defs>
<rect width="1200" height="250" fill="#edf3f9"/><rect x="0.5" y="0.5" width="1199" height="249" fill="none" stroke="#d5dae0" stroke-width="1"/>
<text x="56" y="62" font-family="Poppins, 'Helvetica Neue', Arial, sans-serif" font-size="10.5" font-weight="500" fill="#0a4a8f" text-anchor="start" letter-spacing="2.2">OASIS TC ADMINISTRATION</text>
<text x="56" y="102" font-family="Poppins, 'Helvetica Neue', Arial, sans-serif" font-size="30" font-weight="700" fill="#0a2540" text-anchor="start">OASIS Docs Publication Sandbox</text>
<text x="56" y="132" font-family="Poppins, 'Helvetica Neue', Arial, sans-serif" font-size="13.5" font-weight="400" fill="#313131" text-anchor="start">The Markdown to HTML to PDF publication pipeline, and the</text>
<text x="56" y="152" font-family="Poppins, 'Helvetica Neue', Arial, sans-serif" font-size="13.5" font-weight="400" fill="#313131" text-anchor="start">acceptance gate a TC can run before it submits.</text>
<text x="56" y="196" font-family="Poppins, 'Helvetica Neue', Arial, sans-serif" font-size="11" font-weight="400" fill="#6b7380" text-anchor="start">Michael Coletta  ·  Technical Advisor, OASIS Open</text>
<rect x="742" y="66.0" width="96" height="44" rx="2" ry="2" fill="#fafcfe" stroke="#aeb7c4" stroke-width="1"/>
<text x="790.0" y="93" font-family="'IBM Plex Mono', Menlo, Consolas, monospace" font-size="15" font-weight="500" fill="#0a2540" text-anchor="middle">.md</text>
<line x1="845" y1="88" x2="873" y2="88" stroke="#2248e5" stroke-width="1.5" marker-end="url(#aAcc)"/>
<rect x="880" y="66.0" width="96" height="44" rx="2" ry="2" fill="#fafcfe" stroke="#aeb7c4" stroke-width="1"/>
<text x="928.0" y="93" font-family="'IBM Plex Mono', Menlo, Consolas, monospace" font-size="15" font-weight="500" fill="#0a2540" text-anchor="middle">.html</text>
<line x1="983" y1="88" x2="1011" y2="88" stroke="#2248e5" stroke-width="1.5" marker-end="url(#aAcc)"/>
<rect x="1018" y="66.0" width="96" height="44" rx="2" ry="2" fill="#fafcfe" stroke="#aeb7c4" stroke-width="1"/>
<text x="1066.0" y="93" font-family="'IBM Plex Mono', Menlo, Consolas, monospace" font-size="15" font-weight="500" fill="#0a2540" text-anchor="middle">.pdf</text>
<rect x="742" y="132" width="372" height="44" rx="2" ry="2" fill="#e9f3ec" stroke="#15803d" stroke-width="1.5"/>
<text x="928.0" y="159" font-family="'IBM Plex Mono', Menlo, Consolas, monospace" font-size="13" font-weight="500" fill="#15803d" text-anchor="middle">pub-check · 92 checks · exit 0 = publish</text>
</svg>
